<svg xmlns="http://www.w3.org/2000/svg" width="107" height="91.97" viewBox="0 0 107 91.97">
  <g id="logo" transform="translate(-135.157 -250.5)">
    <g id="Group_13" data-name="Group 13" transform="translate(132.074 250.5)">
      <text id="PalliativeWoundPro" transform="translate(3.083 88.97)" fill="#fff" font-size="13" font-family="Calibri-Bold, Calibri" font-weight="700"><tspan x="0" y="0">PalliativeWoundPro</tspan></text>
      <g id="Group_117" data-name="Group 117" transform="translate(-6.13)">
        <g id="Group_9" data-name="Group 9" transform="translate(44.785)">
          <path id="Path_9" data-name="Path 9" d="M463.489,264.589c0,5.121-2.359,9.986-7.279,14.8l-7.572,7.572a46.4,46.4,0,0,0-14.065-.9,81.59,81.59,0,0,1-12.748.951c-3.6-3.6-6.749-6.749-7.663-7.645-4.865-4.81-7.261-9.675-7.261-14.8a15.042,15.042,0,0,1,28.221-7.279l.073.2.073-.2a15.042,15.042,0,0,1,28.221,7.3Z" transform="translate(-406.9 -249.5)" fill="#333e8d" fill-rule="evenodd"/>
        </g>
        <g id="Group_12" data-name="Group 12" transform="translate(56.414 12.964)">
          <g id="Group_11" data-name="Group 11" transform="translate(0 0.604)">
            <g id="Group_10" data-name="Group 10" transform="translate(23.503 0.086)">
              <path id="Path_10" data-name="Path 10" d="M608.723,339.091a3.769,3.769,0,0,1-1.134,2.689l-3.6,3.493-5.286-5.286,3.695-3.566a3.765,3.765,0,0,1,5.286.073A3.7,3.7,0,0,1,608.723,339.091Z" transform="translate(-598.7 -335.373)" fill="#fff" fill-rule="evenodd"/>
            </g>
            <path id="Path_11" data-name="Path 11" d="M486.2,350.9h0a3.731,3.731,0,0,1-5.286,0l-9.621-9.621a3.731,3.731,0,0,1,0-5.286h0a3.731,3.731,0,0,1,5.286,0l9.62,9.621A3.731,3.731,0,0,1,486.2,350.9Z" transform="translate(-470.2 -334.9)" fill="#fff" fill-rule="evenodd"/>
          </g>
          <path id="Path_12" data-name="Path 12" d="M548.3,347.6h0a3.731,3.731,0,0,1-5.286,0l-9.621-9.621a3.731,3.731,0,0,1,0-5.286h0a3.731,3.731,0,0,1,5.286,0l9.621,9.621A3.765,3.765,0,0,1,548.3,347.6Z" transform="translate(-520.942 -331.6)" fill="#fff" fill-rule="evenodd"/>
        </g>
        <path id="Path_13" data-name="Path 13" d="M237.95,346.874c2.085-.86,7.7-1.792,14.979,8.194.018.018.037.055.055.073.549.9,10.444,17.01,10.828,17.01,0,0,5.414,7.737,17.778,7.755h.11c.585-.055,5.56-.53,8.468-2.707h0a1.072,1.072,0,0,0-.914-.311c-1.847.238-8.066.951-11.358.329a.89.89,0,0,0-.22-.018c-.823.018-6.438-.11-12.108-6a5.023,5.023,0,0,1-.4-.476,20.566,20.566,0,0,1-3.274-8.23s-.384-1.939,5.03,1.171c0,0,8.139,5.432,29.063,2.323,0,0,28.679-3.493,37.2,20.156,0,0,2.853,7.773,4.554,12.583a1.106,1.106,0,0,1-1.591,1.335c-4.664-2.689-9.383-6.2-44.353-1.957,0,0-14.815,2.561-32.227-14.284,0,0-15.839-14.339-22.222-35.556A1.124,1.124,0,0,1,237.95,346.874Z" transform="translate(-225.076 -328.657)" fill="#fff"/>
      </g>
    </g>
  </g>
</svg>
